<svg id="visual" viewBox="0 0 900 600" width="900" height="600" xmlns="http://www.w3.org/2000/svg" xmlns:xlink="http://www.w3.org/1999/xlink" version="1.1"><rect width="900" height="600" fill="#001829"></rect><g><g transform="translate(429 459)"><path d="M0 -147L127.3 -73.5L127.3 73.5L0 147L-127.3 73.5L-127.3 -73.5Z" fill="#297EA6"></path></g><g transform="translate(145 312)"><path d="M0 -119L103.1 -59.5L103.1 59.5L0 119L-103.1 59.5L-103.1 -59.5Z" fill="#297EA6"></path></g><g transform="translate(468 98)"><path d="M0 -101L87.5 -50.5L87.5 50.5L0 101L-87.5 50.5L-87.5 -50.5Z" fill="#297EA6"></path></g><g transform="translate(873 210)"><path d="M0 -141L122.1 -70.5L122.1 70.5L0 141L-122.1 70.5L-122.1 -70.5Z" fill="#297EA6"></path></g></g></svg>